<?xml version="1.0" standalone="no"?>
<!DOCTYPE svg PUBLIC "-//W3C//DTD SVG 20010904//EN"
 "http://www.w3.org/TR/2001/REC-SVG-20010904/DTD/svg10.dtd">
<svg version="1.0" xmlns="http://www.w3.org/2000/svg"
 width="331.000000pt" height="364.000000pt" viewBox="0 0 331.000000 364.000000"
 preserveAspectRatio="xMidYMid meet">

<g transform="translate(0.000000,364.000000) scale(0.100000,-0.100000)"
fill="#000000" stroke="none">
<path d="M40 3623 c0 -7 4 -13 9 -13 5 0 26 -33 47 -72 40 -76 67 -149 54
-145 -4 1 -20 -11 -34 -28 -30 -35 -27 -56 15 -100 16 -17 29 -41 29 -52 0
-12 4 -24 10 -28 5 -3 7 -12 4 -20 -3 -8 4 -19 18 -26 31 -17 68 -52 68 -66 0
-6 16 -30 36 -54 19 -24 47 -65 60 -91 14 -27 31 -51 39 -54 7 -3 23 -27 35
-52 12 -26 31 -53 41 -60 27 -19 47 -62 44 -94 -4 -33 10 -38 55 -22 27 10 30
13 13 13 -13 1 -23 6 -23 12 0 6 7 8 17 5 14 -6 12 -2 -5 17 -24 26 -29 48 -9
44 6 -1 11 6 11 16 -2 24 9 21 34 -8 14 -16 17 -25 9 -25 -7 0 -13 -9 -14 -20
-1 -11 3 -20 8 -20 5 0 9 -6 8 -12 -3 -24 1 -38 11 -38 5 0 6 8 3 17 -6 15 -5
16 9 3 14 -13 14 -16 -1 -27 -13 -10 -10 -11 17 -8 28 4 33 1 28 -12 -7 -18
41 -123 62 -136 6 -4 12 -14 12 -21 0 -7 24 -61 54 -119 29 -58 51 -109 47
-113 -3 -4 0 -4 7 0 12 7 16 -2 13 -40 -1 -12 5 -24 13 -27 9 -4 16 -14 16
-22 0 -10 -5 -13 -12 -9 -6 4 -8 3 -5 -3 3 -5 -3 -24 -14 -42 -25 -41 -19 -67
11 -51 16 8 24 8 35 -4 8 -8 15 -19 15 -24 0 -13 -40 -46 -92 -77 -27 -15 -48
-33 -48 -41 0 -8 -4 -14 -9 -14 -12 0 -41 -63 -41 -89 0 -25 97 -121 123 -121
9 0 17 -6 17 -13 0 -17 28 -43 68 -65 17 -10 54 -34 83 -54 30 -21 58 -38 64
-38 5 0 -6 10 -25 22 -19 12 -49 34 -66 48 -16 14 -44 32 -61 39 -17 7 -35 23
-42 37 -6 13 -21 28 -33 33 -54 21 -147 141 -109 141 5 0 12 8 15 18 21 58 99
119 137 107 11 -4 20 4 29 26 7 17 13 37 13 45 0 8 5 14 10 14 6 0 2 9 -8 20
-14 16 -16 23 -7 32 7 7 12 8 12 3 0 -4 9 0 20 10 20 18 20 18 14 -16 -4 -20
-3 -31 2 -26 5 5 9 14 9 20 0 7 8 13 18 15 10 2 17 -3 17 -12 0 -9 -6 -15 -12
-14 -7 2 -14 -7 -16 -19 -2 -12 -10 -27 -18 -33 -8 -7 -14 -21 -14 -31 0 -10
-4 -20 -9 -23 -27 -17 -9 -80 24 -81 5 0 11 -4 12 -10 4 -16 -7 -45 -18 -45
-5 0 -9 -18 -9 -39 0 -22 -6 -42 -12 -44 -8 -4 -4 -8 9 -12 12 -4 25 -17 28
-29 23 -80 38 -93 171 -147 40 -16 62 -48 42 -61 -9 -6 -6 -7 10 -3 18 5 22 2
23 -17 1 -13 1 -29 0 -35 -7 -51 66 81 75 136 5 31 19 55 50 89 24 26 44 50
44 54 0 5 7 8 15 8 12 0 14 -17 12 -101 -2 -91 -5 -103 -25 -119 -12 -10 -22
-23 -22 -29 0 -6 -4 -11 -10 -11 -5 0 -10 -13 -10 -28 0 -25 -6 -30 -40 -41
-31 -9 -50 -25 -82 -69 -23 -31 -56 -68 -72 -82 -54 -45 -81 -72 -65 -63 39
19 121 99 149 144 16 27 38 49 47 50 10 0 29 2 43 5 21 3 28 -3 43 -36 12 -26
25 -40 37 -40 31 0 31 15 0 71 -32 59 -38 104 -15 113 15 6 28 -12 38 -54 4
-14 22 -36 42 -49 19 -13 32 -27 30 -31 -8 -13 32 -22 65 -15 22 5 30 12 30
29 0 12 9 32 20 44 27 29 25 36 -9 29 -23 -5 -30 -2 -34 13 -4 14 0 20 11 20
10 1 31 7 47 15 l30 14 -34 -6 c-22 -4 -36 -2 -42 8 -6 11 9 23 64 51 72 37
81 51 14 23 -45 -19 -63 -19 -70 -1 -4 9 15 24 58 45 36 18 67 36 70 41 8 14
4 13 -43 -10 -46 -23 -83 -26 -80 -8 4 16 35 40 71 56 15 6 27 16 27 22 0 14
-78 2 -108 -17 -22 -13 -82 -123 -82 -149 0 -14 -39 -64 -50 -64 -23 0 -38
214 -16 248 4 8 9 27 10 43 1 16 10 35 21 42 12 10 14 16 7 21 -17 10 -15 23
9 47 19 19 20 22 5 37 -15 15 -16 15 -16 -5 0 -12 -4 -23 -8 -25 -4 -2 -23
-32 -41 -68 -40 -78 -57 -98 -71 -84 -9 9 5 80 34 179 4 11 -1 4 -10 -15 -17
-37 -33 -91 -37 -125 -2 -14 -9 -19 -25 -18 -49 6 -112 74 -112 122 0 31 -38
111 -53 111 -32 0 -102 120 -110 190 -4 30 40 20 138 -31 156 -80 214 -126
216 -168 0 -14 3 -21 5 -14 3 7 13 9 22 6 12 -4 10 1 -6 17 -15 13 -22 30 -19
41 3 11 1 22 -4 25 -21 13 -6 19 41 16 27 -2 85 3 128 12 44 9 91 16 106 16
37 0 81 46 90 94 4 21 4 42 -1 45 -5 3 -17 19 -27 35 -23 37 -41 228 -24 256
11 17 18 17 58 3 31 -11 60 -11 60 0 -1 7 -18 26 -40 42 -21 17 -38 35 -37 40
2 6 29 23 62 39 56 27 62 28 99 15 42 -15 42 -13 51 -119 2 -30 9 -56 15 -58
5 -2 10 -11 10 -21 0 -9 7 -26 15 -37 17 -22 20 -64 5 -64 -6 0 -13 14 -17 30
-6 33 -23 41 -23 11 0 -10 -3 -34 -6 -52 -5 -29 -4 -32 8 -18 7 9 18 14 24 12
20 -7 36 26 32 62 -2 19 -1 35 4 35 20 0 -33 174 -64 207 -29 31 -80 37 -141
18 -51 -17 -107 -65 -107 -92 0 -8 -7 -25 -16 -39 -25 -38 -12 -208 22 -277
30 -63 30 -89 2 -122 -18 -20 -38 -28 -88 -36 -36 -6 -87 -14 -115 -19 -101
-17 -115 -14 -187 43 -37 28 -69 59 -71 67 -4 11 -5 11 -6 -2 -1 -22 -19 -24
-27 -3 -4 8 -10 12 -15 9 -28 -17 -157 83 -173 134 -4 12 -23 29 -42 38 -39
19 -62 61 -72 134 -6 38 -11 46 -32 48 -14 2 -31 8 -37 14 -15 12 -47 2 -38
-12 3 -5 2 -10 -3 -10 -5 0 -15 11 -22 25 -7 13 -21 27 -31 30 -10 4 -16 12
-13 20 9 23 -5 38 -22 24 -8 -6 -14 -7 -14 -2 0 6 -10 15 -22 22 -13 6 -15 9
-5 7 9 -3 17 -1 17 4 0 6 -4 10 -10 10 -5 0 -10 9 -10 20 0 11 -7 20 -16 20
-8 0 -12 5 -9 11 10 15 -15 69 -31 69 -8 0 -14 5 -14 11 0 22 -52 120 -70 129
-10 5 -26 30 -36 55 -18 42 -34 59 -34 34 0 -5 -5 -7 -10 -4 -6 3 -13 -1 -16
-9 -3 -9 -12 -16 -19 -16 -19 0 -46 35 -40 52 3 8 -3 22 -14 32 -21 19 -18 46
6 46 11 0 14 -7 11 -25 -4 -21 0 -26 30 -36 33 -11 37 -10 50 10 15 22 47 27
72 11 13 -8 12 -11 -5 -24 -11 -9 -23 -16 -27 -16 -5 0 -8 -8 -8 -17 0 -11 3
-14 8 -8 4 6 19 18 35 28 40 26 22 54 -41 62 -59 9 -122 35 -122 51 0 7 -6 17
-13 21 -19 11 -72 116 -92 183 -4 14 -11 30 -15 35 -17 24 -20 65 -5 71 8 3
12 10 9 15 -3 5 0 9 5 9 6 0 11 16 11 36 0 34 -1 35 -32 33 -55 -3 -125 29
-120 55 2 12 -5 16 -34 16 -34 0 -36 -1 -22 -17 23 -27 30 -80 12 -87 -9 -4
-19 3 -26 19 -6 14 -15 25 -21 25 -5 0 -6 7 -3 16 3 8 2 13 -3 10 -5 -3 -11 1
-14 8 -4 9 1 17 11 19 9 3 5 4 -10 4 -16 -1 -28 -7 -28 -14z m270 -103 c0 -5
-4 -10 -9 -10 -5 0 -17 -3 -27 -7 -16 -6 -17 -5 -4 10 17 18 40 22 40 7z
m-120 -21 c0 -5 6 -9 13 -9 9 0 14 -12 15 -31 1 -35 7 -44 30 -44 9 0 17 -5
17 -12 0 -6 3 -15 8 -19 17 -17 6 -34 -23 -34 -16 0 -30 5 -30 10 0 6 -9 10
-20 10 -21 0 -28 16 -10 22 6 2 2 13 -10 25 -11 12 -20 28 -20 36 0 7 -5 18
-10 23 -17 17 -2 43 21 37 10 -3 19 -9 19 -14z m30 11 c0 -5 -4 -10 -10 -10
-5 0 -10 5 -10 10 0 6 5 10 10 10 6 0 10 -4 10 -10z m77 -26 c-3 -3 -12 -4
-19 -1 -8 3 -5 6 6 6 11 1 17 -2 13 -5z m-157 -171 c0 -7 -7 -13 -15 -13 -15
0 -21 31 -8 43 8 8 23 -12 23 -30z m88 -1 c2 -7 -3 -10 -12 -6 -12 5 -16 0
-16 -16 0 -22 -1 -23 -20 -5 -27 24 -11 58 22 46 12 -4 24 -13 26 -19z m69 12
c-3 -3 -12 -4 -19 -1 -8 3 -5 6 6 6 11 1 17 -2 13 -5z m36 -56 c-1 -18 4 -28
15 -31 9 -3 5 -4 -10 -4 -15 1 -24 5 -21 10 3 4 -3 14 -13 21 -20 15 -10 39
14 34 11 -3 16 -13 15 -30z m-118 -38 c-4 -6 6 -10 24 -10 36 0 52 -19 22 -27
-11 -3 -19 -9 -16 -13 2 -3 -11 -2 -30 4 -26 8 -35 16 -35 33 0 17 6 23 21 23
11 0 17 -4 14 -10z m171 -37 c3 -10 10 -26 15 -35 7 -13 5 -18 -5 -18 -8 0
-17 -4 -20 -9 -7 -10 18 -63 26 -56 2 3 5 -2 5 -10 0 -8 -6 -15 -14 -15 -7 0
-13 7 -13 15 0 8 -4 15 -9 15 -5 0 -13 9 -16 21 -5 15 -1 25 14 36 22 15 19
38 -3 30 -7 -3 -13 5 -14 19 -2 28 26 34 34 7z m-96 -62 c0 -5 3 -16 6 -25 3
-9 1 -16 -5 -16 -6 0 -11 9 -11 19 0 11 -6 22 -12 24 -8 3 -6 6 5 6 9 1 17 -3
17 -8z m194 -42 c-3 -5 -10 -7 -15 -3 -5 3 -7 10 -3 15 3 5 10 7 15 3 5 -3 7
-10 3 -15z m-124 -30 c0 -6 -4 -8 -9 -5 -5 4 -11 1 -13 -6 -3 -7 -7 -5 -11 6
-4 10 -3 15 3 11 6 -3 10 -1 10 5 0 6 5 8 10 5 6 -3 10 -11 10 -16z m10 -34
c-1 -3 15 -28 34 -55 20 -28 36 -55 36 -61 0 -14 -48 39 -55 62 -4 11 -11 19
-16 19 -5 0 -9 7 -9 15 0 8 -6 15 -12 15 -9 0 -8 3 2 10 14 9 23 7 20 -5z
m149 -62 c10 -19 9 -23 -3 -23 -16 0 -29 27 -20 42 7 11 7 10 23 -19z m31 17
c0 -5 -5 -10 -11 -10 -5 0 -7 5 -4 10 3 6 8 10 11 10 2 0 4 -4 4 -10z m-75 -8
c-5 -6 39 -87 61 -112 16 -19 7 -60 -13 -60 -8 0 -11 -5 -7 -12 5 -7 3 -8 -5
-4 -7 5 -10 14 -7 22 3 8 0 14 -7 15 -7 1 -2 4 10 7 l23 7 -30 45 c-17 25 -35
44 -40 43 -5 -2 -7 3 -4 11 3 8 0 17 -5 21 -15 8 -6 22 14 22 8 0 13 -3 10 -5z
m91 -74 c3 -31 -3 -34 -30 -13 -11 8 -16 20 -12 30 9 26 38 13 42 -17z m34 -4
c0 -8 -5 -12 -10 -9 -6 4 -8 11 -5 16 9 14 15 11 15 -7z m5 -41 c5 -10 7 -26
6 -35 -1 -10 3 -18 9 -18 6 0 8 -4 5 -10 -9 -15 -25 -12 -25 5 0 8 -6 15 -14
15 -20 0 -28 27 -10 34 9 3 12 10 9 16 -3 5 -2 10 3 10 6 0 13 -8 17 -17z m45
-39 c0 -8 -4 -12 -10 -9 -5 3 -10 10 -10 16 0 5 5 9 10 9 6 0 10 -7 10 -16z
m8 -62 c4 -23 -4 -27 -27 -13 -17 11 -7 45 12 39 6 -3 13 -14 15 -26z m75
-153 c-4 -13 -9 -17 -15 -11 -11 11 -3 32 12 32 4 0 6 -9 3 -21z m193 -94 c-8
-8 -17 -15 -20 -15 -3 0 -6 7 -6 15 0 9 9 15 21 15 18 0 19 -2 5 -15z m-120
-10 c4 -8 15 -15 25 -15 25 0 24 -15 -1 -40 -36 -36 -74 2 -54 54 8 20 23 21
30 1z m144 -35 c0 -5 -2 -10 -4 -10 -3 0 -8 5 -11 10 -3 6 -1 10 4 10 6 0 11
-4 11 -10z m-80 -54 c0 -27 -14 -40 -34 -33 -21 8 -8 57 15 57 13 0 19 -7 19
-24z m60 -26 c0 -5 -4 -10 -9 -10 -6 0 -13 5 -16 10 -3 6 1 10 9 10 9 0 16 -4
16 -10z m10 -36 c0 -8 -4 -12 -10 -9 -5 3 -10 10 -10 16 0 5 5 9 10 9 6 0 10
-7 10 -16z m110 -14 c0 -5 -4 -10 -10 -10 -5 0 -10 5 -10 10 0 6 5 10 10 10 6
0 10 -4 10 -10z m-135 -20 c3 -5 -1 -10 -9 -10 -9 0 -16 5 -16 10 0 6 4 10 9
10 6 0 13 -4 16 -10z m45 -41 c0 -19 -5 -29 -15 -29 -8 0 -15 5 -15 10 0 6 -5
10 -11 10 -5 0 -8 -4 -4 -9 8 -13 -10 -22 -29 -15 -18 7 -22 24 -5 24 6 0 20
11 30 25 25 30 49 23 49 -16z m60 16 c0 -8 -7 -15 -16 -15 -14 0 -14 3 -4 15
7 8 14 15 16 15 2 0 4 -7 4 -15z m-145 -5 c3 -5 -1 -10 -9 -10 -9 0 -16 5 -16
10 0 6 4 10 9 10 6 0 13 -4 16 -10z m228 -37 c9 -3 17 -10 17 -15 0 -5 5 -6
11 -2 6 3 14 3 18 -2 3 -5 41 -26 84 -48 42 -21 77 -43 77 -47 0 -5 6 -9 13
-9 17 0 53 -38 44 -46 -4 -4 -9 1 -13 10 -3 9 -13 16 -21 16 -8 0 -27 8 -41
18 -26 18 -117 63 -157 78 -22 8 -33 10 -56 12 -9 1 -19 14 -22 28 -4 20 -1
24 12 18 9 -3 24 -9 34 -11z m-86 1 c-3 -3 -12 -4 -19 -1 -8 3 -5 6 6 6 11 1
17 -2 13 -5z m-16 -109 c0 -6 -15 -14 -34 -19 -26 -7 -38 -17 -47 -42 -14 -35
-40 -54 -40 -29 0 19 58 85 84 95 25 10 38 8 37 -5z m414 -74 c3 -5 1 -12 -4
-15 -5 -3 -11 1 -15 9 -6 16 9 21 19 6z m-295 -121 c0 -5 -7 -10 -16 -10 -8 0
-12 5 -9 10 3 6 10 10 16 10 5 0 9 -4 9 -10z m-5 -61 c-4 -6 -14 -8 -22 -5 -8
3 -11 1 -8 -4 3 -6 15 -10 25 -10 18 0 48 -35 79 -90 19 -34 31 -147 19 -182
-9 -24 -15 -28 -47 -28 -28 0 -47 9 -78 35 -36 31 -44 44 -59 111 -17 72 -17
78 -1 106 9 16 17 38 17 48 0 11 9 20 23 23 42 8 58 7 52 -4z m103 -88 c3 -8
-1 -12 -9 -9 -7 2 -15 10 -17 17 -3 8 1 12 9 9 7 -2 15 -10 17 -17z m42 -126
c0 -8 -7 -15 -15 -15 -16 0 -20 12 -8 23 11 12 23 8 23 -8z m64 -123 c-6 -31
-24 -35 -24 -6 0 14 22 45 28 40 1 -2 -1 -17 -4 -34z m-49 -42 c11 -17 -5 -32
-21 -19 -8 6 -14 15 -14 20 0 12 27 11 35 -1z"/>
<path d="M2961 3609 c-18 -41 -71 -99 -71 -77 0 20 -27 31 -37 15 -10 -16 -6
-83 6 -104 6 -12 1 -32 -20 -71 -16 -30 -29 -62 -29 -71 0 -13 -16 -61 -51
-146 -4 -11 -11 -30 -14 -42 -4 -13 -11 -23 -16 -23 -6 0 -8 -4 -5 -8 3 -5 -4
-38 -14 -73 -11 -35 -19 -68 -19 -74 1 -5 9 15 19 45 22 68 43 80 34 18 -4
-23 -11 -44 -16 -46 -4 -2 -8 -10 -8 -18 0 -8 -9 -14 -20 -14 -11 0 -20 -5
-20 -12 0 -7 -15 -48 -34 -93 -18 -44 -41 -101 -50 -126 -9 -26 -31 -68 -48
-94 -17 -26 -33 -59 -34 -73 -3 -27 -47 -78 -74 -87 -23 -7 -36 -41 -39 -100
-2 -47 0 -51 22 -53 26 -2 63 30 53 47 -8 13 8 23 27 15 9 -3 13 -13 10 -25
-4 -13 0 -19 11 -19 9 0 16 -7 16 -15 0 -8 -9 -15 -20 -15 -14 0 -20 7 -20 23
0 16 -3 18 -9 9 -4 -8 -11 -12 -14 -10 -3 1 -18 -8 -34 -22 -15 -13 -32 -25
-38 -25 -5 -1 -22 -6 -37 -13 -30 -12 -35 -31 -17 -60 9 -14 8 -25 -5 -50 -9
-18 -18 -65 -21 -108 -2 -52 -9 -82 -20 -94 -21 -24 -41 -16 -50 18 -4 15 -10
21 -12 14 -3 -7 3 -24 12 -38 13 -20 22 -24 40 -20 22 6 23 4 18 -43 -6 -61
10 -118 43 -155 14 -15 26 -27 27 -25 39 71 40 76 22 112 -9 20 -23 41 -31 48
-8 6 -14 17 -14 25 0 16 43 64 59 64 6 0 11 17 11 42 0 33 -3 39 -12 30 -16
-16 -38 -15 -38 2 0 16 27 29 42 19 8 -4 9 11 5 50 -5 40 -3 58 5 63 9 6 5 10
-12 14 -34 8 -32 34 3 38 15 2 27 7 27 12 0 5 -23 6 -51 3 -41 -4 -51 -3 -47
8 3 8 13 15 24 15 10 1 32 7 48 13 18 7 32 8 35 3 3 -6 15 -11 26 -13 17 -4
21 -16 29 -77 8 -62 6 -75 -8 -91 -12 -13 -15 -31 -12 -66 3 -45 16 -65 43
-65 7 0 21 -10 33 -22 11 -12 20 -17 20 -11 0 16 -29 43 -57 54 -19 7 -23 16
-23 53 0 26 5 46 12 48 7 3 13 26 14 59 3 85 22 145 50 158 14 6 27 18 30 26
4 8 10 15 16 15 5 0 7 -4 4 -8 -2 -4 31 -9 75 -9 43 -1 77 2 75 5 -8 13 281 1
317 -13 10 -4 21 -5 24 -1 3 3 12 1 19 -5 7 -6 28 -11 46 -11 18 0 50 -9 70
-19 21 -11 39 -19 42 -19 3 0 5 20 4 45 -1 50 -8 56 -32 23 -10 -15 -14 -17
-10 -6 8 23 -32 39 -64 27 -37 -14 -39 -10 -7 11 17 11 36 18 43 15 6 -2 12
-2 12 1 0 5 -33 18 -75 28 -16 4 -27 4 -23 0 9 -8 -10 -34 -24 -34 -6 0 -6 6
1 14 25 30 -5 35 -249 40 -159 3 -182 1 -159 -16 11 -8 11 -9 -1 -5 -8 2 -14
11 -12 21 2 9 -2 16 -8 16 -6 0 -9 4 -6 9 3 4 -5 6 -18 4 -29 -6 -35 12 -25
74 7 51 29 79 69 86 22 5 30 13 35 39 4 18 13 44 20 58 7 14 25 63 39 109 29
90 63 168 77 177 5 3 9 13 9 23 0 10 7 24 15 31 8 6 14 15 13 18 -4 15 32 83
46 88 33 13 41 72 16 134 -30 75 -27 99 28 250 7 21 10 31 16 60 3 14 8 37 12
53 5 26 4 27 -33 27 -33 0 -40 -4 -52 -31z m69 11 c0 -5 -2 -10 -4 -10 -3 0
-8 5 -11 10 -3 6 -1 10 4 10 6 0 11 -4 11 -10z m-10 -47 c0 -18 -35 -16 -50 2
-10 12 -10 18 -1 29 11 13 15 12 32 -2 10 -9 19 -22 19 -29z m-28 -86 c-7 -30
-19 -44 -42 -50 -16 -4 -22 3 -31 34 -11 34 -10 42 6 58 17 20 17 20 45 -1 20
-14 26 -26 22 -41z m-112 28 c0 -14 -4 -25 -9 -25 -5 0 -8 11 -8 25 0 14 3 25
8 25 5 0 9 -11 9 -25z m10 -66 c0 -5 -4 -9 -10 -9 -5 0 -10 7 -10 16 0 8 5 12
10 9 6 -3 10 -10 10 -16z m16 -30 c3 -6 2 -15 -4 -21 -8 -8 -6 -15 5 -26 14
-14 17 -14 29 3 13 18 14 18 14 -3 0 -12 -6 -22 -12 -23 -10 0 -10 -2 0 -6 6
-2 12 -8 12 -12 0 -13 -49 -31 -67 -24 -12 5 -10 0 6 -16 23 -23 20 -46 -5
-37 -8 3 -14 1 -14 -3 0 -5 6 -12 13 -14 6 -3 -2 -6 -20 -6 -17 -1 -40 -4 -50
-7 -15 -5 -15 -4 -3 5 11 8 11 11 2 11 -9 0 -10 5 -2 19 5 11 10 29 10 40 0
12 9 29 20 39 11 9 25 34 31 54 10 38 22 47 35 27z m58 -215 c7 -19 -10 -54
-27 -54 -8 0 -14 15 -15 35 -2 29 1 35 17 35 10 0 22 -7 25 -16z m-159 -45
c-7 -20 -8 -21 -17 -5 -5 9 -7 24 -4 33 10 26 29 -1 21 -28z m58 19 c7 -27 3
-32 -18 -25 -19 8 -20 47 -1 47 7 0 16 -10 19 -22z m-41 -67 c26 -6 54 -8 62
-5 12 5 15 -2 14 -30 -1 -34 -12 -48 -20 -26 -5 15 -128 23 -128 8 0 -6 -2 -9
-4 -7 -3 3 0 24 6 48 6 23 14 38 17 32 4 -5 28 -15 53 -20z m-102 -248 c0 -14
-30 -53 -41 -53 -9 0 -1 37 14 68 8 16 13 19 19 10 4 -7 8 -19 8 -25z m-27
-69 c11 -11 -14 -59 -45 -87 -17 -15 -33 -26 -35 -24 -3 3 8 39 32 105 4 12
37 17 48 6z m-23 -189 c0 -18 -79 -65 -109 -65 -34 0 -11 33 41 58 52 25 68
27 68 7z m-40 -59 c0 -3 -4 -8 -10 -11 -5 -3 -10 -1 -10 4 0 6 5 11 10 11 6 0
10 -2 10 -4z m-40 -45 c-5 -9 -2 -24 8 -38 14 -23 14 -24 -7 -30 -12 -3 -20
-12 -19 -22 2 -13 -6 -16 -37 -16 -22 0 -43 -4 -47 -10 -5 -6 -11 -6 -20 3
-18 18 -28 15 -28 -8 0 -11 -5 -20 -11 -20 -16 0 -1 51 19 66 9 6 22 10 28 7
7 -3 20 10 30 29 25 51 34 58 65 56 21 -2 26 -6 19 -17z m320 -131 c5 8 12 11
16 8 3 -4 -1 -15 -11 -24 -13 -14 -19 -14 -25 -4 -4 7 -13 10 -19 6 -7 -5 -9
-1 -5 9 5 12 9 13 21 3 11 -9 16 -9 23 2z m46 -16 c-21 -20 -28 -17 -14 5 7
11 16 17 20 15 5 -3 2 -12 -6 -20z m80 12 c17 6 17 5 -1 -9 -11 -9 -21 -11
-23 -6 -2 5 -10 9 -18 9 -9 0 -12 5 -9 10 5 8 11 8 20 0 7 -6 21 -7 31 -4z
m-266 0 c0 -2 -7 -7 -16 -10 -8 -3 -12 -2 -9 4 6 10 25 14 25 6z m31 -5 c-8
-5 -11 -16 -8 -24 4 -11 1 -14 -9 -10 -7 3 -14 8 -14 12 0 11 23 31 35 31 5 0
4 -4 -4 -9z m35 -6 c-8 -8 -18 -15 -22 -15 -3 0 -1 7 6 15 7 8 17 15 22 15 5
0 3 -7 -6 -15z m240 0 c-25 -19 -41 -19 -24 0 7 8 20 14 28 14 11 0 10 -3 -4
-14z m44 5 c0 -5 -5 -10 -11 -10 -5 0 -7 5 -4 10 3 6 8 10 11 10 2 0 4 -4 4
-10z m66 -25 c-8 -8 -19 -15 -25 -15 -6 0 -8 7 -5 15 4 8 15 15 26 15 17 0 18
-2 4 -15z m-576 -5 c0 -5 -5 -10 -11 -10 -5 0 -7 5 -4 10 3 6 8 10 11 10 2 0
4 -4 4 -10z m-240 -234 c0 -8 -4 -17 -9 -21 -12 -7 -24 12 -16 25 9 15 25 12
25 -4z m-10 -57 c0 -6 -4 -7 -10 -4 -5 3 -10 11 -10 16 0 6 5 7 10 4 6 -3 10
-11 10 -16z m20 -83 c0 -2 -3 -11 -6 -20 -9 -23 -34 -20 -34 4 0 13 7 20 20
20 11 0 20 -2 20 -4z m-30 -121 c0 -8 -4 -15 -10 -15 -5 0 -10 7 -10 15 0 8 5
15 10 15 6 0 10 -7 10 -15z"/>
<path d="M576 2732 c-3 -5 1 -15 8 -21 11 -10 14 -9 12 3 -3 21 -13 29 -20 18z"/>
<path d="M12 2700 c0 -14 2 -19 5 -12 2 6 2 18 0 25 -3 6 -5 1 -5 -13z"/>
<path d="M1902 2567 l-23 -24 42 -7 c46 -7 63 2 57 30 -5 29 -49 29 -76 1z"/>
<path d="M1935 2460 c-11 -5 -14 -9 -7 -9 6 -1 12 -8 12 -16 0 -8 7 -15 15
-15 11 0 15 -11 15 -37 0 -56 -27 -116 -60 -135 -20 -11 -28 -22 -24 -32 7
-18 24 -22 24 -6 0 6 7 10 16 10 11 0 14 -8 12 -27 -2 -20 -9 -28 -23 -28 -15
0 -20 -7 -20 -27 -1 -27 1 -28 51 -28 29 0 56 5 59 10 9 15 82 12 118 -4 18
-8 41 -16 52 -18 21 -3 37 -31 54 -88 9 -33 9 -33 4 10 -3 25 -9 54 -13 64 -8
23 -74 43 -172 54 -37 4 -70 11 -73 14 -4 3 -9 25 -12 49 -5 36 -3 44 18 60
l24 19 -24 0 c-18 0 -22 4 -16 18 5 9 13 42 20 72 9 44 9 57 -2 68 -7 7 -13
18 -13 23 0 11 -8 11 -35 -1z"/>
<path d="M2665 2450 c-3 -5 -1 -10 4 -10 6 0 11 5 11 10 0 6 -2 10 -4 10 -3 0
-8 -4 -11 -10z"/>
<path d="M1805 2360 c-3 -5 3 -10 15 -10 12 0 18 5 15 10 -3 6 -10 10 -15 10
-5 0 -12 -4 -15 -10z"/>
<path d="M1914 2344 c3 -9 6 -19 6 -22 0 -9 20 21 20 31 0 4 -7 7 -16 7 -11 0
-14 -5 -10 -16z"/>
<path d="M3263 2327 c-3 -5 -3 -10 -1 -12 7 -7 48 7 48 16 0 10 -40 7 -47 -4z"/>
<path d="M2465 2160 c-3 -5 -1 -10 4 -10 6 0 11 5 11 10 0 6 -2 10 -4 10 -3 0
-8 -4 -11 -10z"/>
<path d="M1790 2105 c-14 -16 -10 -18 14 -9 9 3 16 10 16 15 0 14 -16 11 -30
-6z"/>
<path d="M1572 1985 c-18 -38 -15 -44 13 -32 29 14 30 17 12 41 -12 17 -14 16
-25 -9z"/>
<path d="M2005 2000 c-3 -5 -17 -10 -30 -10 -25 0 -46 -19 -23 -21 45 -3 61
-7 69 -20 13 -20 -20 -42 -53 -35 -82 17 -84 14 -8 -9 81 -25 105 -39 94 -57
-3 -4 -23 -8 -44 -8 -56 0 -58 -16 -4 -29 43 -11 74 -30 74 -47 0 -4 -31 -4
-70 -2 -38 3 -70 2 -70 -2 0 -3 25 -14 55 -24 30 -9 61 -27 70 -39 12 -17 15
-18 15 -5 0 9 -4 19 -10 23 -5 3 -1 14 10 25 22 22 25 41 10 56 -6 6 -5 34 3
77 12 70 29 86 47 45 14 -31 61 -112 70 -118 3 -3 10 -14 13 -24 4 -10 10 -16
13 -13 3 3 -20 49 -52 102 -50 84 -61 96 -80 92 -13 -2 -21 0 -18 5 4 5 -4 8
-17 6 -17 -2 -27 4 -34 20 -11 24 -20 28 -30 12z"/>
<path d="M1490 1956 c0 -2 7 -9 15 -16 13 -11 14 -10 9 4 -5 14 -24 23 -24 12z"/>
<path d="M2515 1890 c-3 -5 -1 -10 4 -10 6 0 11 5 11 10 0 6 -2 10 -4 10 -3 0
-8 -4 -11 -10z"/>
<path d="M1585 1860 c3 -5 8 -10 11 -10 2 0 4 5 4 10 0 6 -5 10 -11 10 -5 0
-7 -4 -4 -10z"/>
<path d="M1850 1860 c14 -4 32 -8 40 -9 13 -1 13 0 0 9 -8 5 -26 9 -40 9 l-25
-1 25 -8z"/>
<path d="M2590 1860 c0 -5 5 -10 11 -10 5 0 7 5 4 10 -3 6 -8 10 -11 10 -2 0
-4 -4 -4 -10z"/>
<path d="M2240 1746 c0 -3 14 -30 31 -62 17 -31 35 -68 39 -83 6 -18 9 -20 9
-7 1 20 -56 143 -71 152 -4 3 -8 3 -8 0z"/>
<path d="M2570 1705 c-8 -9 -8 -15 -2 -15 12 0 26 19 19 26 -2 2 -10 -2 -17
-11z"/>
<path d="M1996 1657 c47 -33 64 -53 64 -78 0 -15 -17 -10 -72 22 l-53 30 47
-44 c61 -59 80 -115 30 -88 -33 18 -49 12 -24 -8 12 -11 22 -28 22 -40 0 -11
5 -33 11 -48 30 -73 37 -90 50 -120 8 -18 17 -33 21 -33 5 0 7 -3 7 -7 -3 -21
2 -34 11 -28 12 8 282 -276 357 -374 2 -2 6 -2 9 2 4 3 -16 30 -43 59 -28 29
-72 77 -99 107 -27 29 -72 78 -101 107 -61 64 -143 171 -143 188 0 6 -10 29
-22 51 -13 26 -20 55 -19 83 1 23 2 50 2 60 1 9 -2 27 -6 40 -6 16 -3 22 9 22
12 0 16 9 16 34 0 19 2 40 5 48 4 9 -8 17 -37 25 -24 6 -54 14 -68 18 -16 5
-6 -6 26 -28z"/>
<path d="M2530 1609 c-13 -22 -31 -63 -40 -91 -16 -54 -19 -57 -102 -91 -35
-15 -37 -15 -52 6 -8 12 -15 17 -15 11 -1 -5 5 -18 12 -28 13 -18 16 -18 64
-2 70 23 80 33 103 99 12 33 30 72 42 87 11 15 19 33 17 38 -2 6 -15 -7 -29
-29z"/>
<path d="M2416 1565 c-9 -25 -7 -75 3 -75 20 0 42 34 39 59 -3 29 -32 40 -42
16z m28 -33 c-4 -12 -10 -22 -16 -22 -7 0 -7 15 1 60 1 2 5 0 11 -6 5 -5 7
-19 4 -32z"/>
<path d="M1836 1498 c3 -18 13 -43 21 -55 9 -13 13 -31 10 -42 -2 -10 0 -26 6
-36 7 -13 6 -16 -3 -10 -7 4 -16 2 -21 -6 -15 -24 -10 -29 15 -17 37 16 50 57
31 94 -8 16 -15 43 -16 59 0 26 -2 27 -9 10 -8 -19 -9 -19 -9 1 -1 12 -8 25
-17 28 -13 5 -14 1 -8 -26z"/>
<path d="M2307 1501 c-2 -10 -1 -25 4 -32 6 -10 9 -4 9 19 0 36 -5 42 -13 13z"/>
<path d="M1120 1473 c0 -13 98 -73 117 -72 13 0 11 3 -7 10 -13 6 -38 20 -55
33 -42 32 -55 38 -55 29z"/>
<path d="M1920 1470 c0 -12 35 -31 43 -24 3 3 3 12 0 20 -6 16 -43 19 -43 4z"/>
<path d="M1783 1403 c-7 -2 -13 -13 -13 -24 0 -10 -4 -19 -10 -19 -5 0 -10 -7
-10 -15 0 -8 -6 -15 -14 -15 -24 0 -27 -28 -3 -36 12 -4 23 -2 25 4 1 5 12 7
23 5 14 -4 20 -1 19 8 -1 8 -2 32 -1 54 1 31 4 37 12 25 9 -12 10 -12 7 -1 -5
17 -17 22 -35 14z"/>
<path d="M1978 1384 c2 -13 10 -24 17 -24 16 0 8 37 -9 43 -9 4 -11 -2 -8 -19z"/>
<path d="M1891 1281 c-8 -5 -21 -7 -29 -3 -10 3 -13 0 -10 -9 8 -23 61 -23 83
1 18 20 18 20 -6 20 -13 0 -30 -4 -38 -9z"/>
<path d="M1480 1229 c0 -5 5 -7 10 -4 6 3 10 8 10 11 0 2 -4 4 -10 4 -5 0 -10
-5 -10 -11z"/>
<path d="M1711 1189 c85 -144 94 -169 62 -169 -10 0 -26 12 -38 26 -21 27 -55
25 -55 -3 0 -13 3 -13 16 -2 14 11 18 10 33 -10 13 -16 25 -22 47 -19 26 3 29
7 32 41 3 35 5 37 36 37 19 0 50 7 69 15 20 8 47 15 60 15 14 0 30 -7 37 -15
7 -8 21 -15 31 -15 35 0 66 -43 94 -130 25 -79 64 -298 81 -450 7 -72 18 -100
38 -100 17 0 28 42 22 83 -3 18 -8 75 -11 127 -5 95 -20 188 -35 225 -15 35
-23 105 -12 105 6 0 27 -20 47 -44 20 -24 43 -47 53 -51 9 -3 14 -4 12 -1 -3
3 -40 41 -82 84 -72 74 -99 92 -78 53 10 -18 42 -163 44 -201 1 -14 5 -31 9
-37 5 -7 5 -18 2 -23 -4 -6 -1 -17 5 -25 7 -8 10 -21 7 -29 -3 -7 -1 -31 4
-52 14 -60 20 -204 9 -204 -6 0 -10 10 -10 22 0 12 -7 67 -16 123 -62 407 -79
473 -129 511 -18 13 -37 24 -43 24 -6 0 -26 9 -44 20 -29 17 -40 18 -73 9 -22
-6 -44 -15 -50 -20 -13 -12 -62 -11 -70 2 -4 6 -13 8 -21 5 -18 -7 -44 43 -44
84 0 17 -5 30 -12 30 -7 0 -23 3 -36 6 -22 6 -22 5 9 -47z"/>
<path d="M1816 1221 c-11 -12 -17 -23 -15 -25 8 -8 41 23 37 34 -2 7 -11 3
-22 -9z"/>
<path d="M1621 1214 c-1 -10 -64 -89 -121 -152 -11 -13 -25 -20 -31 -17 -7 5
-5 13 5 24 27 30 18 45 -40 70 l-55 24 -16 -22 c-11 -17 -21 -21 -42 -16 -44
9 -151 -52 -273 -157 -15 -13 -37 -31 -50 -41 -81 -63 -188 -186 -188 -217 0
-6 -8 -23 -19 -38 -36 -53 -55 -87 -53 -94 1 -4 -12 -30 -28 -58 -16 -27 -25
-50 -21 -50 5 0 11 6 14 13 4 9 7 9 18 -1 7 -6 19 -12 27 -12 18 0 43 -26 34
-35 -4 -5 -2 -6 3 -2 6 3 28 -10 50 -29 22 -19 36 -34 30 -34 -5 0 0 -7 11
-16 10 -8 13 -13 7 -9 -8 4 -11 1 -7 -9 3 -8 23 -17 45 -21 73 -13 34 -55 -50
-55 -33 0 -47 -8 -96 -55 -32 -30 -63 -55 -69 -56 -6 0 -20 -2 -31 -5 -11 -2
-51 -7 -89 -11 -57 -5 -68 -4 -64 8 3 8 18 21 34 29 16 8 35 23 42 33 7 9 22
17 32 17 10 0 53 30 94 66 l75 66 -27 35 c-26 33 -88 73 -114 73 -7 0 6 -9 29
-21 23 -11 53 -35 66 -53 l25 -32 -54 -53 c-29 -29 -68 -57 -86 -62 -18 -5
-45 -20 -60 -34 -15 -14 -31 -25 -36 -25 -6 0 -17 -11 -26 -25 -16 -24 -15
-25 10 -31 78 -20 235 23 249 67 8 24 55 46 113 55 65 9 95 29 82 54 -5 10
-18 21 -29 25 -10 3 -21 18 -24 33 -3 16 -18 34 -35 45 -46 26 -116 87 -129
111 -14 25 -8 57 22 112 30 55 40 74 56 109 32 70 335 334 403 351 14 3 31 12
37 20 8 10 22 13 41 9 19 -5 37 -1 55 10 24 16 28 16 64 -1 41 -20 46 -32 27
-64 -10 -15 -10 -22 0 -32 9 -9 18 -6 40 15 32 31 67 35 94 10 10 -9 18 -11
18 -5 0 6 -12 20 -26 31 -24 19 -25 21 -10 50 9 16 25 36 37 44 13 9 19 22 16
34 -3 10 -5 13 -6 7z"/>
<path d="M2100 1191 c0 -6 4 -13 10 -16 6 -3 7 1 4 9 -7 18 -14 21 -14 7z"/>
<path d="M1028 1099 c-38 -28 -68 -56 -68 -62 0 -9 36 16 50 35 3 4 28 23 55
43 28 19 45 35 40 35 -6 0 -40 -23 -77 -51z"/>
<path d="M892 990 c-28 -21 -56 -47 -64 -57 -7 -10 -32 -31 -55 -47 -24 -16
-43 -33 -43 -38 0 -4 -11 -13 -24 -18 -13 -5 -39 -21 -57 -37 -19 -15 -50 -36
-70 -46 -40 -20 -72 -67 -63 -91 3 -9 17 -19 30 -22 22 -6 24 -11 24 -69 0
-65 24 -115 56 -115 10 0 6 8 -12 23 -23 20 -27 33 -30 87 -4 63 -15 90 -39
90 -7 0 -16 7 -19 16 -8 20 57 84 84 84 11 0 23 6 27 14 4 7 31 29 58 47 62
42 89 63 140 114 22 22 58 55 80 73 22 17 37 32 33 32 -3 0 -29 -18 -56 -40z"/>
<path d="M1605 1010 c-3 -5 -1 -10 4 -10 6 0 11 5 11 10 0 6 -2 10 -4 10 -3 0
-8 -4 -11 -10z"/>
<path d="M1650 1003 c-24 -12 -24 -13 -3 -13 12 0 25 5 28 11 11 16 2 17 -25
2z"/>
<path d="M2330 824 c0 -7 18 -27 39 -44 22 -18 53 -59 71 -91 40 -76 49 -77
11 -1 -29 57 -121 161 -121 136z"/>
<path d="M2530 770 c29 -34 65 -67 79 -75 14 -8 42 -28 61 -44 19 -17 37 -31
40 -31 3 0 14 -17 25 -37 10 -21 24 -45 31 -53 6 -8 16 -28 22 -45 6 -16 11
-23 11 -14 2 44 -112 209 -145 209 -7 0 -14 3 -16 8 -1 4 -20 19 -40 33 -21
14 -51 44 -68 67 -16 23 -35 42 -41 42 -6 0 13 -27 41 -60z"/>
<path d="M2485 595 c16 -81 28 -103 66 -124 22 -12 39 -19 39 -14 0 4 -14 14
-30 21 -33 15 -60 57 -60 94 0 13 -5 30 -10 38 -8 11 -9 7 -5 -15z"/>
<path d="M2590 430 c1 -15 50 -82 50 -67 0 4 -11 25 -25 45 -14 20 -25 30 -25
22z"/>
<path d="M2780 418 c0 -11 -11 -35 -24 -52 -13 -17 -26 -47 -30 -66 -5 -26 -4
-31 3 -20 6 8 11 21 11 29 0 8 11 28 23 45 25 32 41 86 26 86 -5 0 -9 -10 -9
-22z"/>
<path d="M2641 334 c0 -11 3 -14 6 -6 3 7 2 16 -1 19 -3 4 -6 -2 -5 -13z"/>
<path d="M2605 259 c-10 -30 0 -33 13 -4 6 14 7 25 2 25 -5 0 -12 -9 -15 -21z"/>
<path d="M2711 240 c0 -8 2 -32 5 -53 5 -30 11 -37 25 -35 12 2 42 -19 80 -57
39 -39 69 -60 85 -60 33 -1 30 12 -4 20 -16 3 -53 30 -83 60 -30 30 -59 55
-65 55 -11 0 -30 33 -37 65 -3 11 -5 13 -6 5z"/>
<path d="M2571 204 c0 -11 3 -14 6 -6 3 7 2 16 -1 19 -3 4 -6 -2 -5 -13z"/>
<path d="M2600 195 c0 -11 5 -27 10 -35 8 -12 10 -12 10 5 0 11 -5 27 -10 35
-8 12 -10 12 -10 -5z"/>
<path d="M2564 136 c-8 -35 2 -61 31 -76 20 -10 28 -11 37 -2 22 22 58 13 95
-23 20 -19 41 -35 47 -35 6 0 -4 12 -21 26 -18 14 -33 32 -33 40 0 17 -61 19
-91 3 -40 -21 -79 47 -47 79 9 9 9 12 0 12 -6 0 -14 -11 -18 -24z"/>
<path d="M2943 19 c-1 -15 2 -18 10 -11 7 5 21 6 32 1 37 -15 40 -8 5 11 -44
24 -45 24 -47 -1z"/>
</g>
</svg>
